<svg width="117" height="32" viewBox="0 0 117 32" fill="none" xmlns="http://www.w3.org/2000/svg">
<rect x="0.5" y="0.5" width="115.89" height="31" rx="7.5" stroke="#D9D9D9"/>
<g clip-path="url(#clip0_17_363)">
<path d="M15.3732 20.7686L12.5403 18.952L9.70734 20.7686C9.62173 20.8215 9.52263 20.8484 9.42205 20.8461C9.32146 20.8438 9.22369 20.8124 9.14057 20.7557C9.06025 20.6955 8.99946 20.613 8.9658 20.5184C8.93214 20.4238 8.92711 20.3214 8.95134 20.224L9.84488 17.1345L7.17627 14.9228C7.02488 14.7991 6.96211 14.5886 7.02488 14.3911C7.08765 14.1935 7.26396 14.0699 7.46611 14.0449L10.6526 13.8225L12.087 10.7459C12.1627 10.5732 12.339 10.4615 12.5403 10.4615C12.7415 10.4615 12.9187 10.5732 12.9935 10.7459L14.4289 13.8234L17.6153 14.0459C17.8166 14.0588 17.9929 14.1935 18.0566 14.392C18.0856 14.4857 18.0869 14.5858 18.0602 14.6802C18.0335 14.7745 17.98 14.8591 17.9061 14.9237L15.2486 17.1234L16.1421 20.2129C16.1723 20.3101 16.1701 20.4144 16.136 20.5103C16.1019 20.6061 16.0376 20.6883 15.9529 20.7446C15.8648 20.8085 15.7589 20.843 15.6501 20.8434C15.5529 20.8437 15.4574 20.8173 15.3732 20.7686Z" fill="#989898"/>
</g>
<g clip-path="url(#clip1_17_363)">
<path d="M31.3732 20.7686L28.5403 18.952L25.7073 20.7686C25.6217 20.8215 25.5226 20.8484 25.422 20.8461C25.3215 20.8438 25.2237 20.8124 25.1406 20.7557C25.0602 20.6955 24.9995 20.613 24.9658 20.5184C24.9321 20.4238 24.9271 20.3214 24.9513 20.224L25.8449 17.1345L23.1763 14.9228C23.0249 14.7991 22.9621 14.5886 23.0249 14.3911C23.0877 14.1935 23.264 14.0699 23.4661 14.0449L26.6526 13.8225L28.087 10.7459C28.1627 10.5732 28.339 10.4615 28.5403 10.4615C28.7415 10.4615 28.9187 10.5732 28.9935 10.7459L30.4289 13.8234L33.6153 14.0459C33.8166 14.0588 33.9929 14.1935 34.0566 14.392C34.0856 14.4857 34.0869 14.5858 34.0602 14.6802C34.0335 14.7745 33.98 14.8591 33.9061 14.9237L31.2486 17.1234L32.1421 20.2129C32.1723 20.3101 32.1701 20.4144 32.136 20.5103C32.1019 20.6061 32.0376 20.6883 31.9529 20.7446C31.8648 20.8085 31.7589 20.843 31.6501 20.8434C31.5529 20.8437 31.4574 20.8173 31.3732 20.7686Z" fill="#989898"/>
</g>
<g clip-path="url(#clip2_17_363)">
<path d="M47.3732 20.7686L44.5403 18.952L41.7073 20.7686C41.6217 20.8215 41.5226 20.8484 41.422 20.8461C41.3215 20.8438 41.2237 20.8124 41.1406 20.7557C41.0602 20.6955 40.9995 20.613 40.9658 20.5184C40.9321 20.4238 40.9271 20.3214 40.9513 20.224L41.8449 17.1345L39.1763 14.9228C39.0249 14.7991 38.9621 14.5886 39.0249 14.3911C39.0877 14.1935 39.264 14.0699 39.4661 14.0449L42.6526 13.8225L44.087 10.7459C44.1627 10.5732 44.339 10.4615 44.5403 10.4615C44.7415 10.4615 44.9187 10.5732 44.9935 10.7459L46.4289 13.8234L49.6153 14.0459C49.8166 14.0588 49.9929 14.1935 50.0566 14.392C50.0856 14.4857 50.0869 14.5858 50.0602 14.6802C50.0335 14.7745 49.98 14.8591 49.9061 14.9237L47.2486 17.1234L48.1421 20.2129C48.1723 20.3101 48.1701 20.4144 48.136 20.5103C48.1019 20.6061 48.0376 20.6883 47.9529 20.7446C47.8648 20.8085 47.7589 20.843 47.6501 20.8434C47.5529 20.8437 47.4574 20.8173 47.3732 20.7686Z" fill="#989898"/>
</g>
<g clip-path="url(#clip3_17_363)">
<path d="M63.3732 20.7686L60.5403 18.952L57.7073 20.7686C57.6217 20.8215 57.5226 20.8484 57.422 20.8461C57.3215 20.8438 57.2237 20.8124 57.1406 20.7557C57.0602 20.6955 56.9995 20.613 56.9658 20.5184C56.9321 20.4238 56.9271 20.3214 56.9513 20.224L57.8449 17.1345L55.1763 14.9228C55.0249 14.7991 54.9621 14.5886 55.0249 14.3911C55.0877 14.1935 55.264 14.0699 55.4661 14.0449L58.6526 13.8225L60.087 10.7459C60.1627 10.5732 60.339 10.4615 60.5403 10.4615C60.7415 10.4615 60.9187 10.5732 60.9935 10.7459L62.4289 13.8234L65.6153 14.0459C65.8166 14.0588 65.9929 14.1935 66.0566 14.392C66.0856 14.4857 66.0869 14.5858 66.0602 14.6802C66.0335 14.7745 65.98 14.8591 65.9061 14.9237L63.2486 17.1234L64.1421 20.2129C64.1723 20.3101 64.1701 20.4144 64.136 20.5103C64.1019 20.6061 64.0376 20.6883 63.9529 20.7446C63.8648 20.8085 63.7589 20.843 63.6501 20.8434C63.5529 20.8437 63.4574 20.8173 63.3732 20.7686Z" fill="#989898"/>
</g>
<g clip-path="url(#clip4_17_363)">
<path d="M79.3732 20.7686L76.5403 18.952L73.7073 20.7686C73.6217 20.8215 73.5226 20.8484 73.422 20.8461C73.3215 20.8438 73.2237 20.8124 73.1406 20.7557C73.0602 20.6955 72.9995 20.613 72.9658 20.5184C72.9321 20.4238 72.9271 20.3214 72.9513 20.224L73.8449 17.1345L71.1763 14.9228C71.0249 14.7991 70.9621 14.5886 71.0249 14.3911C71.0877 14.1935 71.264 14.0699 71.4661 14.0449L74.6526 13.8225L76.087 10.7459C76.1627 10.5732 76.339 10.4615 76.5403 10.4615C76.7415 10.4615 76.9187 10.5732 76.9935 10.7459L78.4289 13.8234L81.6153 14.0459C81.8166 14.0588 81.9929 14.1935 82.0566 14.392C82.0856 14.4857 82.0869 14.5858 82.0602 14.6802C82.0335 14.7745 81.98 14.8591 81.9061 14.9237L79.2486 17.1234L80.1421 20.2129C80.1723 20.3101 80.1701 20.4144 80.136 20.5103C80.1019 20.6061 80.0376 20.6883 79.9529 20.7446C79.8648 20.8085 79.7589 20.843 79.6501 20.8434C79.5529 20.8437 79.4574 20.8173 79.3732 20.7686Z" fill="#989898"/>
<path fill-rule="evenodd" clip-rule="evenodd" d="M76.5386 18.9529L76.5404 18.952L79.3743 20.7695C79.462 20.8184 79.5506 20.8434 79.6512 20.8434C79.7647 20.8434 79.8653 20.8064 79.954 20.7446C80.0387 20.6883 80.103 20.6061 80.1371 20.5102C80.1712 20.4144 80.1733 20.3101 80.1432 20.2129L79.2497 17.1234L81.9063 14.9237C81.9803 14.8593 82.034 14.7747 82.0607 14.6802C82.0874 14.5858 82.086 14.4856 82.0567 14.392C82.0267 14.2965 81.9685 14.2123 81.8898 14.1505C81.811 14.0887 81.7154 14.0522 81.6155 14.0458L78.429 13.8234L76.9946 10.7458C76.9549 10.6595 76.8909 10.5866 76.8104 10.5361C76.7299 10.4856 76.6364 10.4597 76.5413 10.4615L76.5386 18.9529Z" fill="#D9D9D9"/>
</g>
<path d="M88.512 19.964H90.472V13.188L90.612 12.362L90.052 13.02L88.512 14.126L87.98 13.412L91.06 11.032H91.564V19.964H93.482V21H88.512V19.964ZM96.1689 21L99.6829 12.796L100.299 12.11L99.4729 12.236H95.4829V11.2H101.335V11.578L97.3029 21H96.1689ZM105.534 20.188C105.851 20.188 106.145 20.1413 106.416 20.048C106.686 19.9547 106.92 19.8193 107.116 19.642C107.312 19.4553 107.466 19.236 107.578 18.984C107.69 18.732 107.746 18.4567 107.746 18.158C107.746 17.5047 107.55 17.0193 107.158 16.702C106.775 16.3847 106.243 16.226 105.562 16.226H104.526V15.82L106.542 12.712L107.186 12.096L106.276 12.236H103.504V11.2H108.502V11.606L106.276 14.952L105.786 15.358V15.386L106.262 15.288C106.635 15.2973 106.98 15.3673 107.298 15.498C107.615 15.6193 107.89 15.8013 108.124 16.044C108.357 16.2773 108.539 16.562 108.67 16.898C108.8 17.2247 108.866 17.598 108.866 18.018C108.866 18.522 108.777 18.97 108.6 19.362C108.422 19.754 108.18 20.0853 107.872 20.356C107.573 20.6173 107.218 20.818 106.808 20.958C106.397 21.098 105.963 21.168 105.506 21.168C105.086 21.168 104.708 21.1353 104.372 21.07C104.036 21.0047 103.742 20.9207 103.49 20.818L103.784 19.824C103.998 19.9267 104.25 20.0153 104.54 20.09C104.838 20.1553 105.17 20.188 105.534 20.188Z" fill="#333333"/>
<defs>
<clipPath id="clip0_17_363">
<rect width="12" height="11.0769" fill="white" transform="translate(7 10.4615)"/>
</clipPath>
<clipPath id="clip1_17_363">
<rect width="12" height="11.0769" fill="white" transform="translate(23 10.4615)"/>
</clipPath>
<clipPath id="clip2_17_363">
<rect width="12" height="11.0769" fill="white" transform="translate(39 10.4615)"/>
</clipPath>
<clipPath id="clip3_17_363">
<rect width="12" height="11.0769" fill="white" transform="translate(55 10.4615)"/>
</clipPath>
<clipPath id="clip4_17_363">
<rect width="12" height="11.0769" fill="white" transform="translate(71 10.4615)"/>
</clipPath>
</defs>
</svg>
