<svg width="117" height="32" viewBox="0 0 117 32" fill="none" xmlns="http://www.w3.org/2000/svg">
<rect x="0.5" y="0.5" width="115.89" height="31" rx="7.5" stroke="#D9D9D9"/>
<g clip-path="url(#clip0_17_111)">
<path d="M15.3732 20.7686L12.5403 18.952L9.70734 20.7686C9.62173 20.8215 9.52263 20.8484 9.42205 20.8461C9.32146 20.8438 9.22369 20.8124 9.14057 20.7557C9.06025 20.6955 8.99946 20.6129 8.9658 20.5184C8.93214 20.4238 8.92711 20.3214 8.95134 20.224L9.84488 17.1345L7.17627 14.9228C7.02488 14.7991 6.96211 14.5886 7.02488 14.3911C7.08765 14.1935 7.26396 14.0698 7.46611 14.0449L10.6526 13.8225L12.087 10.7458C12.1627 10.5732 12.339 10.4615 12.5403 10.4615C12.7415 10.4615 12.9187 10.5732 12.9935 10.7458L14.4289 13.8234L17.6153 14.0458C17.8166 14.0588 17.9929 14.1935 18.0566 14.392C18.0856 14.4857 18.0869 14.5858 18.0602 14.6802C18.0335 14.7745 17.98 14.8591 17.9061 14.9237L15.2486 17.1234L16.1421 20.2129C16.1723 20.3101 16.1701 20.4144 16.136 20.5103C16.1019 20.6061 16.0376 20.6883 15.9529 20.7446C15.8648 20.8085 15.7589 20.843 15.6501 20.8434C15.5529 20.8437 15.4574 20.8173 15.3732 20.7686Z" fill="#989898"/>
</g>
<g clip-path="url(#clip1_17_111)">
<path d="M31.3732 20.7686L28.5403 18.952L25.7073 20.7686C25.6217 20.8215 25.5226 20.8484 25.422 20.8461C25.3215 20.8438 25.2237 20.8124 25.1406 20.7557C25.0602 20.6955 24.9995 20.6129 24.9658 20.5184C24.9321 20.4238 24.9271 20.3214 24.9513 20.224L25.8449 17.1345L23.1763 14.9228C23.0249 14.7991 22.9621 14.5886 23.0249 14.3911C23.0877 14.1935 23.264 14.0698 23.4661 14.0449L26.6526 13.8225L28.087 10.7458C28.1627 10.5732 28.339 10.4615 28.5403 10.4615C28.7415 10.4615 28.9187 10.5732 28.9935 10.7458L30.4289 13.8234L33.6153 14.0458C33.8166 14.0588 33.9929 14.1935 34.0566 14.392C34.0856 14.4857 34.0869 14.5858 34.0602 14.6802C34.0335 14.7745 33.98 14.8591 33.9061 14.9237L31.2486 17.1234L32.1421 20.2129C32.1723 20.3101 32.1701 20.4144 32.136 20.5103C32.1019 20.6061 32.0376 20.6883 31.9529 20.7446C31.8648 20.8085 31.7589 20.843 31.6501 20.8434C31.5529 20.8437 31.4574 20.8173 31.3732 20.7686Z" fill="#989898"/>
</g>
<g clip-path="url(#clip2_17_111)">
<path d="M47.3732 20.7686L44.5403 18.952L41.7073 20.7686C41.6217 20.8215 41.5226 20.8484 41.422 20.8461C41.3215 20.8438 41.2237 20.8124 41.1406 20.7557C41.0602 20.6955 40.9995 20.6129 40.9658 20.5184C40.9321 20.4238 40.9271 20.3214 40.9513 20.224L41.8449 17.1345L39.1763 14.9228C39.0249 14.7991 38.9621 14.5886 39.0249 14.3911C39.0877 14.1935 39.264 14.0698 39.4661 14.0449L42.6526 13.8225L44.087 10.7458C44.1627 10.5732 44.339 10.4615 44.5403 10.4615C44.7415 10.4615 44.9187 10.5732 44.9935 10.7458L46.4289 13.8234L49.6153 14.0458C49.8166 14.0588 49.9929 14.1935 50.0566 14.392C50.0856 14.4857 50.0869 14.5858 50.0602 14.6802C50.0335 14.7745 49.98 14.8591 49.9061 14.9237L47.2486 17.1234L48.1421 20.2129C48.1723 20.3101 48.1701 20.4144 48.136 20.5103C48.1019 20.6061 48.0376 20.6883 47.9529 20.7446C47.8648 20.8085 47.7589 20.843 47.6501 20.8434C47.5529 20.8437 47.4574 20.8173 47.3732 20.7686Z" fill="#989898"/>
</g>
<g clip-path="url(#clip3_17_111)">
<path d="M63.3732 20.7686L60.5403 18.952L57.7073 20.7686C57.6217 20.8215 57.5226 20.8484 57.422 20.8461C57.3215 20.8438 57.2237 20.8124 57.1406 20.7557C57.0602 20.6955 56.9995 20.6129 56.9658 20.5184C56.9321 20.4238 56.9271 20.3214 56.9513 20.224L57.8449 17.1345L55.1763 14.9228C55.0249 14.7991 54.9621 14.5886 55.0249 14.3911C55.0877 14.1935 55.264 14.0698 55.4661 14.0449L58.6526 13.8225L60.087 10.7458C60.1627 10.5732 60.339 10.4615 60.5403 10.4615C60.7415 10.4615 60.9187 10.5732 60.9935 10.7458L62.4289 13.8234L65.6153 14.0458C65.8166 14.0588 65.9929 14.1935 66.0566 14.392C66.0856 14.4857 66.0869 14.5858 66.0602 14.6802C66.0335 14.7745 65.98 14.8591 65.9061 14.9237L63.2486 17.1234L64.1421 20.2129C64.1723 20.3101 64.1701 20.4144 64.136 20.5103C64.1019 20.6061 64.0376 20.6883 63.9529 20.7446C63.8648 20.8085 63.7589 20.843 63.6501 20.8434C63.5529 20.8437 63.4574 20.8173 63.3732 20.7686Z" fill="#989898"/>
</g>
<g clip-path="url(#clip4_17_111)">
<path d="M79.3732 20.7686L76.5403 18.952L73.7073 20.7686C73.6217 20.8215 73.5226 20.8484 73.422 20.8461C73.3215 20.8438 73.2237 20.8124 73.1406 20.7557C73.0602 20.6955 72.9995 20.6129 72.9658 20.5184C72.9321 20.4238 72.9271 20.3214 72.9513 20.224L73.8449 17.1345L71.1763 14.9228C71.0249 14.7991 70.9621 14.5886 71.0249 14.3911C71.0877 14.1935 71.264 14.0698 71.4661 14.0449L74.6526 13.8225L76.087 10.7458C76.1627 10.5732 76.339 10.4615 76.5403 10.4615C76.7415 10.4615 76.9187 10.5732 76.9935 10.7458L78.4289 13.8234L81.6153 14.0458C81.8166 14.0588 81.9929 14.1935 82.0566 14.392C82.0856 14.4857 82.0869 14.5858 82.0602 14.6802C82.0335 14.7745 81.98 14.8591 81.9061 14.9237L79.2486 17.1234L80.1421 20.2129C80.1723 20.3101 80.1701 20.4144 80.136 20.5103C80.1019 20.6061 80.0376 20.6883 79.9529 20.7446C79.8648 20.8085 79.7589 20.843 79.6501 20.8434C79.5529 20.8437 79.4574 20.8173 79.3732 20.7686Z" fill="#D7D7D7"/>
</g>
<path d="M93.244 13.426C93.244 13.9207 93.1507 14.4293 92.964 14.952C92.7867 15.4653 92.5487 15.9833 92.25 16.506C91.9607 17.0287 91.634 17.542 91.27 18.046C90.906 18.5407 90.542 19.012 90.178 19.46L89.492 20.062V20.118L90.388 19.964H93.44V21H87.868V20.594C88.0733 20.3793 88.3207 20.1133 88.61 19.796C88.8993 19.4787 89.198 19.1287 89.506 18.746C89.8233 18.354 90.1313 17.9433 90.43 17.514C90.738 17.0753 91.0133 16.632 91.256 16.184C91.508 15.736 91.7087 15.2927 91.858 14.854C92.0073 14.4153 92.082 14 92.082 13.608C92.082 13.1507 91.9513 12.7727 91.69 12.474C91.4287 12.166 91.032 12.012 90.5 12.012C90.1453 12.012 89.8 12.0867 89.464 12.236C89.128 12.376 88.8387 12.5393 88.596 12.726L88.134 11.928C88.4607 11.648 88.848 11.4287 89.296 11.27C89.744 11.1113 90.2247 11.032 90.738 11.032C91.1393 11.032 91.494 11.0927 91.802 11.214C92.11 11.326 92.3713 11.4893 92.586 11.704C92.8007 11.9187 92.964 12.1753 93.076 12.474C93.188 12.7633 93.244 13.0807 93.244 13.426ZM96.1409 19.964H98.1009V13.188L98.2409 12.362L97.6809 13.02L96.1409 14.126L95.6089 13.412L98.6889 11.032H99.1929V19.964H101.111V21H96.1409V19.964ZM102.86 16.1C102.86 14.42 103.13 13.1553 103.672 12.306C104.222 11.4567 105.02 11.032 106.066 11.032C107.195 11.032 108.012 11.452 108.516 12.292C109.029 13.1227 109.286 14.392 109.286 16.1C109.286 17.78 109.01 19.0447 108.46 19.894C107.918 20.7433 107.12 21.168 106.066 21.168C104.955 21.168 104.143 20.7247 103.63 19.838C103.116 18.9513 102.86 17.7053 102.86 16.1ZM104.022 16.1C104.022 16.7067 104.059 17.262 104.134 17.766C104.218 18.2607 104.344 18.69 104.512 19.054C104.68 19.4087 104.89 19.6887 105.142 19.894C105.403 20.09 105.711 20.188 106.066 20.188C106.775 20.188 107.293 19.8613 107.62 19.208C107.956 18.5453 108.124 17.5093 108.124 16.1C108.124 15.5027 108.086 14.952 108.012 14.448C107.946 13.944 107.83 13.51 107.662 13.146C107.503 12.782 107.293 12.502 107.032 12.306C106.77 12.11 106.448 12.012 106.066 12.012C105.366 12.012 104.848 12.3433 104.512 13.006C104.185 13.6687 104.022 14.7 104.022 16.1Z" fill="#333333"/>
<defs>
<clipPath id="clip0_17_111">
<rect width="12" height="11.0769" fill="white" transform="translate(7 10.4615)"/>
</clipPath>
<clipPath id="clip1_17_111">
<rect width="12" height="11.0769" fill="white" transform="translate(23 10.4615)"/>
</clipPath>
<clipPath id="clip2_17_111">
<rect width="12" height="11.0769" fill="white" transform="translate(39 10.4615)"/>
</clipPath>
<clipPath id="clip3_17_111">
<rect width="12" height="11.0769" fill="white" transform="translate(55 10.4615)"/>
</clipPath>
<clipPath id="clip4_17_111">
<rect width="12" height="11.0769" fill="white" transform="translate(71 10.4615)"/>
</clipPath>
</defs>
</svg>
