<svg width="119" height="32" viewBox="0 0 119 32" fill="none" xmlns="http://www.w3.org/2000/svg">
<rect x="0.5" y="0.5" width="118" height="31" rx="7.5" stroke="#D9D9D9"/>
<g clip-path="url(#clip0_10_1787)">
<path d="M15.3732 20.7686L12.5403 18.952L9.70734 20.7686C9.62173 20.8215 9.52263 20.8484 9.42205 20.8461C9.32146 20.8438 9.22369 20.8124 9.14057 20.7557C9.06025 20.6955 8.99946 20.613 8.9658 20.5184C8.93214 20.4238 8.92711 20.3214 8.95134 20.224L9.84488 17.1345L7.17627 14.9228C7.02488 14.7991 6.96211 14.5886 7.02488 14.3911C7.08765 14.1935 7.26396 14.0699 7.46611 14.0449L10.6526 13.8225L12.087 10.7459C12.1627 10.5732 12.339 10.4615 12.5403 10.4615C12.7415 10.4615 12.9187 10.5732 12.9935 10.7459L14.4289 13.8234L17.6153 14.0459C17.8166 14.0588 17.9929 14.1935 18.0566 14.392C18.0856 14.4857 18.0869 14.5858 18.0602 14.6802C18.0335 14.7745 17.98 14.8591 17.9061 14.9237L15.2486 17.1234L16.1421 20.2129C16.1723 20.3101 16.1701 20.4144 16.136 20.5103C16.1019 20.6061 16.0376 20.6883 15.9529 20.7446C15.8648 20.8085 15.7589 20.843 15.6501 20.8434C15.5529 20.8437 15.4574 20.8173 15.3732 20.7686Z" fill="#989898"/>
</g>
<g clip-path="url(#clip1_10_1787)">
<path d="M31.3732 20.7686L28.5403 18.952L25.7073 20.7686C25.6217 20.8215 25.5226 20.8484 25.422 20.8461C25.3215 20.8438 25.2237 20.8124 25.1406 20.7557C25.0602 20.6955 24.9995 20.613 24.9658 20.5184C24.9321 20.4238 24.9271 20.3214 24.9513 20.224L25.8449 17.1345L23.1763 14.9228C23.0249 14.7991 22.9621 14.5886 23.0249 14.3911C23.0877 14.1935 23.264 14.0699 23.4661 14.0449L26.6526 13.8225L28.087 10.7459C28.1627 10.5732 28.339 10.4615 28.5403 10.4615C28.7415 10.4615 28.9187 10.5732 28.9935 10.7459L30.4289 13.8234L33.6153 14.0459C33.8166 14.0588 33.9929 14.1935 34.0566 14.392C34.0856 14.4857 34.0869 14.5858 34.0602 14.6802C34.0335 14.7745 33.98 14.8591 33.9061 14.9237L31.2486 17.1234L32.1421 20.2129C32.1723 20.3101 32.1701 20.4144 32.136 20.5103C32.1019 20.6061 32.0376 20.6883 31.9529 20.7446C31.8648 20.8085 31.7589 20.843 31.6501 20.8434C31.5529 20.8437 31.4574 20.8173 31.3732 20.7686Z" fill="#989898"/>
</g>
<g clip-path="url(#clip2_10_1787)">
<path d="M47.3732 20.7686L44.5403 18.952L41.7073 20.7686C41.6217 20.8215 41.5226 20.8484 41.422 20.8461C41.3215 20.8438 41.2237 20.8124 41.1406 20.7557C41.0602 20.6955 40.9995 20.613 40.9658 20.5184C40.9321 20.4238 40.9271 20.3214 40.9513 20.224L41.8449 17.1345L39.1763 14.9228C39.0249 14.7991 38.9621 14.5886 39.0249 14.3911C39.0877 14.1935 39.264 14.0699 39.4661 14.0449L42.6526 13.8225L44.087 10.7459C44.1627 10.5732 44.339 10.4615 44.5403 10.4615C44.7415 10.4615 44.9187 10.5732 44.9935 10.7459L46.4289 13.8234L49.6153 14.0459C49.8166 14.0588 49.9929 14.1935 50.0566 14.392C50.0856 14.4857 50.0869 14.5858 50.0602 14.6802C50.0335 14.7745 49.98 14.8591 49.9061 14.9237L47.2486 17.1234L48.1421 20.2129C48.1723 20.3101 48.1701 20.4144 48.136 20.5103C48.1019 20.6061 48.0376 20.6883 47.9529 20.7446C47.8648 20.8085 47.7589 20.843 47.6501 20.8434C47.5529 20.8437 47.4574 20.8173 47.3732 20.7686Z" fill="#989898"/>
</g>
<g clip-path="url(#clip3_10_1787)">
<path d="M63.3732 20.7686L60.5403 18.952L57.7073 20.7686C57.6217 20.8215 57.5226 20.8484 57.422 20.8461C57.3215 20.8438 57.2237 20.8124 57.1406 20.7557C57.0602 20.6955 56.9995 20.613 56.9658 20.5184C56.9321 20.4238 56.9271 20.3214 56.9513 20.224L57.8449 17.1345L55.1763 14.9228C55.0249 14.7991 54.9621 14.5886 55.0249 14.3911C55.0877 14.1935 55.264 14.0699 55.4661 14.0449L58.6526 13.8225L60.087 10.7459C60.1627 10.5732 60.339 10.4615 60.5403 10.4615C60.7415 10.4615 60.9187 10.5732 60.9935 10.7459L62.4289 13.8234L65.6153 14.0459C65.8166 14.0588 65.9929 14.1935 66.0566 14.392C66.0856 14.4857 66.0869 14.5858 66.0602 14.6802C66.0335 14.7745 65.98 14.8591 65.9061 14.9237L63.2486 17.1234L64.1421 20.2129C64.1723 20.3101 64.1701 20.4144 64.136 20.5103C64.1019 20.6061 64.0376 20.6883 63.9529 20.7446C63.8648 20.8085 63.7589 20.843 63.6501 20.8434C63.5529 20.8437 63.4574 20.8173 63.3732 20.7686Z" fill="#989898"/>
</g>
<g clip-path="url(#clip4_10_1787)">
<path d="M79.3732 20.7686L76.5403 18.952L73.7073 20.7686C73.6217 20.8215 73.5226 20.8484 73.422 20.8461C73.3215 20.8438 73.2237 20.8124 73.1406 20.7557C73.0602 20.6955 72.9995 20.613 72.9658 20.5184C72.9321 20.4238 72.9271 20.3214 72.9513 20.224L73.8449 17.1345L71.1763 14.9228C71.0249 14.7991 70.9621 14.5886 71.0249 14.3911C71.0877 14.1935 71.264 14.0699 71.4661 14.0449L74.6526 13.8225L76.087 10.7459C76.1627 10.5732 76.339 10.4615 76.5403 10.4615C76.7415 10.4615 76.9187 10.5732 76.9935 10.7459L78.4289 13.8234L81.6153 14.0459C81.8166 14.0588 81.9929 14.1935 82.0566 14.392C82.0856 14.4857 82.0869 14.5858 82.0602 14.6802C82.0335 14.7745 81.98 14.8591 81.9061 14.9237L79.2486 17.1234L80.1421 20.2129C80.1723 20.3101 80.1701 20.4144 80.136 20.5103C80.1019 20.6061 80.0376 20.6883 79.9529 20.7446C79.8648 20.8085 79.7589 20.843 79.6501 20.8434C79.5529 20.8437 79.4574 20.8173 79.3732 20.7686Z" fill="#989898"/>
<path fill-rule="evenodd" clip-rule="evenodd" d="M76.5386 18.9529L76.5404 18.952L79.3743 20.7695C79.462 20.8185 79.5506 20.8434 79.6512 20.8434C79.7647 20.8434 79.8653 20.8065 79.954 20.7446C80.0387 20.6884 80.103 20.6061 80.1371 20.5103C80.1712 20.4144 80.1733 20.3101 80.1432 20.2129L79.2497 17.1234L81.9063 14.9237C81.9803 14.8593 82.034 14.7747 82.0607 14.6803C82.0874 14.5858 82.086 14.4857 82.0567 14.392C82.0267 14.2965 81.9685 14.2123 81.8898 14.1505C81.811 14.0888 81.7154 14.0523 81.6155 14.0459L78.429 13.8234L76.9946 10.7459C76.9549 10.6595 76.8909 10.5866 76.8104 10.5361C76.7299 10.4856 76.6364 10.4597 76.5413 10.4615L76.5386 18.9529Z" fill="#D9D9D9"/>
</g>
<path d="M93.244 13.426C93.244 13.9207 93.1507 14.4293 92.964 14.952C92.7867 15.4653 92.5487 15.9833 92.25 16.506C91.9607 17.0287 91.634 17.542 91.27 18.046C90.906 18.5407 90.542 19.012 90.178 19.46L89.492 20.062V20.118L90.388 19.964H93.44V21H87.868V20.594C88.0733 20.3793 88.3207 20.1133 88.61 19.796C88.8993 19.4787 89.198 19.1287 89.506 18.746C89.8233 18.354 90.1313 17.9433 90.43 17.514C90.738 17.0753 91.0133 16.632 91.256 16.184C91.508 15.736 91.7087 15.2927 91.858 14.854C92.0073 14.4153 92.082 14 92.082 13.608C92.082 13.1507 91.9513 12.7727 91.69 12.474C91.4287 12.166 91.032 12.012 90.5 12.012C90.1453 12.012 89.8 12.0867 89.464 12.236C89.128 12.376 88.8387 12.5393 88.596 12.726L88.134 11.928C88.4607 11.648 88.848 11.4287 89.296 11.27C89.744 11.1113 90.2247 11.032 90.738 11.032C91.1393 11.032 91.494 11.0927 91.802 11.214C92.11 11.326 92.3713 11.4893 92.586 11.704C92.8007 11.9187 92.964 12.1753 93.076 12.474C93.188 12.7633 93.244 13.0807 93.244 13.426ZM95.3149 20.356C95.3149 20.104 95.3849 19.908 95.5249 19.768C95.6742 19.6187 95.8702 19.544 96.1129 19.544C96.3649 19.544 96.5656 19.6187 96.7149 19.768C96.8642 19.908 96.9389 20.104 96.9389 20.356C96.9389 20.5987 96.8642 20.7947 96.7149 20.944C96.5656 21.0933 96.3649 21.168 96.1129 21.168C95.8702 21.168 95.6742 21.0933 95.5249 20.944C95.3849 20.7947 95.3149 20.5987 95.3149 20.356ZM100.605 20.188C101.249 20.188 101.781 20.0013 102.201 19.628C102.621 19.2547 102.831 18.7133 102.831 18.004C102.831 17.3227 102.621 16.814 102.201 16.478C101.79 16.142 101.221 15.974 100.493 15.974L99.317 16.044V11.2H103.685V12.236H100.367V15.022L100.969 14.994C101.893 15.0033 102.621 15.26 103.153 15.764C103.685 16.268 103.951 16.9913 103.951 17.934C103.951 18.4567 103.862 18.9233 103.685 19.334C103.508 19.7353 103.265 20.0713 102.957 20.342C102.658 20.6127 102.304 20.818 101.893 20.958C101.482 21.098 101.044 21.168 100.577 21.168C100.157 21.168 99.8024 21.1447 99.513 21.098C99.2237 21.0513 98.953 20.9813 98.701 20.888L98.995 19.936C99.2097 20.02 99.4384 20.0853 99.681 20.132C99.933 20.1693 100.241 20.188 100.605 20.188ZM108.094 17.85H107.45V21H106.33V11.2H107.45V17.164L108.024 16.968L110.194 14H111.496L109.354 16.814L108.78 17.276L109.48 17.836L111.818 21H110.432L108.094 17.85Z" fill="#333333"/>
<defs>
<clipPath id="clip0_10_1787">
<rect width="12" height="11.0769" fill="white" transform="translate(7 10.4615)"/>
</clipPath>
<clipPath id="clip1_10_1787">
<rect width="12" height="11.0769" fill="white" transform="translate(23 10.4615)"/>
</clipPath>
<clipPath id="clip2_10_1787">
<rect width="12" height="11.0769" fill="white" transform="translate(39 10.4615)"/>
</clipPath>
<clipPath id="clip3_10_1787">
<rect width="12" height="11.0769" fill="white" transform="translate(55 10.4615)"/>
</clipPath>
<clipPath id="clip4_10_1787">
<rect width="12" height="11.0769" fill="white" transform="translate(71 10.4615)"/>
</clipPath>
</defs>
</svg>
