<svg width="117" height="32" viewBox="0 0 117 32" fill="none" xmlns="http://www.w3.org/2000/svg">
<rect x="0.5" y="0.5" width="115.89" height="31" rx="7.5" stroke="#D9D9D9"/>
<g clip-path="url(#clip0_17_147)">
<path d="M15.3732 20.7686L12.5403 18.952L9.70734 20.7686C9.62173 20.8215 9.52263 20.8484 9.42205 20.8461C9.32146 20.8438 9.22369 20.8124 9.14057 20.7557C9.06025 20.6955 8.99946 20.613 8.9658 20.5184C8.93214 20.4238 8.92711 20.3214 8.95134 20.224L9.84488 17.1345L7.17627 14.9228C7.02488 14.7991 6.96211 14.5886 7.02488 14.3911C7.08765 14.1935 7.26396 14.0699 7.46611 14.0449L10.6526 13.8225L12.087 10.7459C12.1627 10.5732 12.339 10.4615 12.5403 10.4615C12.7415 10.4615 12.9187 10.5732 12.9935 10.7459L14.4289 13.8234L17.6153 14.0459C17.8166 14.0588 17.9929 14.1935 18.0566 14.392C18.0856 14.4857 18.0869 14.5858 18.0602 14.6802C18.0335 14.7745 17.98 14.8591 17.9061 14.9237L15.2486 17.1234L16.1421 20.2129C16.1723 20.3101 16.1701 20.4144 16.136 20.5103C16.1019 20.6061 16.0376 20.6883 15.9529 20.7446C15.8648 20.8085 15.7589 20.843 15.6501 20.8434C15.5529 20.8437 15.4574 20.8173 15.3732 20.7686Z" fill="#989898"/>
</g>
<g clip-path="url(#clip1_17_147)">
<path d="M31.3732 20.7686L28.5403 18.952L25.7073 20.7686C25.6217 20.8215 25.5226 20.8484 25.422 20.8461C25.3215 20.8438 25.2237 20.8124 25.1406 20.7557C25.0602 20.6955 24.9995 20.613 24.9658 20.5184C24.9321 20.4238 24.9271 20.3214 24.9513 20.224L25.8449 17.1345L23.1763 14.9228C23.0249 14.7991 22.9621 14.5886 23.0249 14.3911C23.0877 14.1935 23.264 14.0699 23.4661 14.0449L26.6526 13.8225L28.087 10.7459C28.1627 10.5732 28.339 10.4615 28.5403 10.4615C28.7415 10.4615 28.9187 10.5732 28.9935 10.7459L30.4289 13.8234L33.6153 14.0459C33.8166 14.0588 33.9929 14.1935 34.0566 14.392C34.0856 14.4857 34.0869 14.5858 34.0602 14.6802C34.0335 14.7745 33.98 14.8591 33.9061 14.9237L31.2486 17.1234L32.1421 20.2129C32.1723 20.3101 32.1701 20.4144 32.136 20.5103C32.1019 20.6061 32.0376 20.6883 31.9529 20.7446C31.8648 20.8085 31.7589 20.843 31.6501 20.8434C31.5529 20.8437 31.4574 20.8173 31.3732 20.7686Z" fill="#989898"/>
</g>
<g clip-path="url(#clip2_17_147)">
<path d="M47.3732 20.7686L44.5403 18.952L41.7073 20.7686C41.6217 20.8215 41.5226 20.8484 41.422 20.8461C41.3215 20.8438 41.2237 20.8124 41.1406 20.7557C41.0602 20.6955 40.9995 20.613 40.9658 20.5184C40.9321 20.4238 40.9271 20.3214 40.9513 20.224L41.8449 17.1345L39.1763 14.9228C39.0249 14.7991 38.9621 14.5886 39.0249 14.3911C39.0877 14.1935 39.264 14.0699 39.4661 14.0449L42.6526 13.8225L44.087 10.7459C44.1627 10.5732 44.339 10.4615 44.5403 10.4615C44.7415 10.4615 44.9187 10.5732 44.9935 10.7459L46.4289 13.8234L49.6153 14.0459C49.8166 14.0588 49.9929 14.1935 50.0566 14.392C50.0856 14.4857 50.0869 14.5858 50.0602 14.6802C50.0335 14.7745 49.98 14.8591 49.9061 14.9237L47.2486 17.1234L48.1421 20.2129C48.1723 20.3101 48.1701 20.4144 48.136 20.5103C48.1019 20.6061 48.0376 20.6883 47.9529 20.7446C47.8648 20.8085 47.7589 20.843 47.6501 20.8434C47.5529 20.8437 47.4574 20.8173 47.3732 20.7686Z" fill="#989898"/>
</g>
<g clip-path="url(#clip3_17_147)">
<path d="M63.3732 20.7686L60.5403 18.952L57.7073 20.7686C57.6217 20.8215 57.5226 20.8484 57.422 20.8461C57.3215 20.8438 57.2237 20.8124 57.1406 20.7557C57.0602 20.6955 56.9995 20.613 56.9658 20.5184C56.9321 20.4238 56.9271 20.3214 56.9513 20.224L57.8449 17.1345L55.1763 14.9228C55.0249 14.7991 54.9621 14.5886 55.0249 14.3911C55.0877 14.1935 55.264 14.0699 55.4661 14.0449L58.6526 13.8225L60.087 10.7459C60.1627 10.5732 60.339 10.4615 60.5403 10.4615C60.7415 10.4615 60.9187 10.5732 60.9935 10.7459L62.4289 13.8234L65.6153 14.0459C65.8166 14.0588 65.9929 14.1935 66.0566 14.392C66.0856 14.4857 66.0869 14.5858 66.0602 14.6802C66.0335 14.7745 65.98 14.8591 65.9061 14.9237L63.2486 17.1234L64.1421 20.2129C64.1723 20.3101 64.1701 20.4144 64.136 20.5103C64.1019 20.6061 64.0376 20.6883 63.9529 20.7446C63.8648 20.8085 63.7589 20.843 63.6501 20.8434C63.5529 20.8437 63.4574 20.8173 63.3732 20.7686Z" fill="#989898"/>
</g>
<g clip-path="url(#clip4_17_147)">
<path d="M79.3732 20.7686L76.5403 18.952L73.7073 20.7686C73.6217 20.8215 73.5226 20.8484 73.422 20.8461C73.3215 20.8438 73.2237 20.8124 73.1406 20.7557C73.0602 20.6955 72.9995 20.613 72.9658 20.5184C72.9321 20.4238 72.9271 20.3214 72.9513 20.224L73.8449 17.1345L71.1763 14.9228C71.0249 14.7991 70.9621 14.5886 71.0249 14.3911C71.0877 14.1935 71.264 14.0699 71.4661 14.0449L74.6526 13.8225L76.087 10.7459C76.1627 10.5732 76.339 10.4615 76.5403 10.4615C76.7415 10.4615 76.9187 10.5732 76.9935 10.7459L78.4289 13.8234L81.6153 14.0459C81.8166 14.0588 81.9929 14.1935 82.0566 14.392C82.0856 14.4857 82.0869 14.5858 82.0602 14.6802C82.0335 14.7745 81.98 14.8591 81.9061 14.9237L79.2486 17.1234L80.1421 20.2129C80.1723 20.3101 80.1701 20.4144 80.136 20.5103C80.1019 20.6061 80.0376 20.6883 79.9529 20.7446C79.8648 20.8085 79.7589 20.843 79.6501 20.8434C79.5529 20.8437 79.4574 20.8173 79.3732 20.7686Z" fill="url(#paint0_linear_17_147)"/>
</g>
<path d="M90.276 20.188C90.5933 20.188 90.8873 20.1413 91.158 20.048C91.4287 19.9547 91.662 19.8193 91.858 19.642C92.054 19.4553 92.208 19.236 92.32 18.984C92.432 18.732 92.488 18.4567 92.488 18.158C92.488 17.5047 92.292 17.0193 91.9 16.702C91.5173 16.3847 90.9853 16.226 90.304 16.226H89.268V15.82L91.284 12.712L91.928 12.096L91.018 12.236H88.246V11.2H93.244V11.606L91.018 14.952L90.528 15.358V15.386L91.004 15.288C91.3773 15.2973 91.7227 15.3673 92.04 15.498C92.3573 15.6193 92.6327 15.8013 92.866 16.044C93.0993 16.2773 93.2813 16.562 93.412 16.898C93.5427 17.2247 93.608 17.598 93.608 18.018C93.608 18.522 93.5193 18.97 93.342 19.362C93.1647 19.754 92.922 20.0853 92.614 20.356C92.3153 20.6173 91.9607 20.818 91.55 20.958C91.1393 21.098 90.7053 21.168 90.248 21.168C89.828 21.168 89.45 21.1353 89.114 21.07C88.778 21.0047 88.484 20.9207 88.232 20.818L88.526 19.824C88.7407 19.9267 88.9927 20.0153 89.282 20.09C89.5807 20.1553 89.912 20.188 90.276 20.188ZM101.965 17.99H100.313V21H99.2209V17.99H94.9089V17.528L99.5569 11.046H100.313V17.01H101.965V17.99ZM99.2209 13.958L99.3609 12.81H99.3189L98.8289 13.762L96.8549 16.436L96.1829 17.122L97.1629 17.01H99.2209V13.958ZM109.146 18.046C109.146 18.4753 109.08 18.8813 108.95 19.264C108.819 19.6373 108.628 19.9687 108.376 20.258C108.124 20.538 107.811 20.762 107.438 20.93C107.064 21.0887 106.64 21.168 106.164 21.168C105.697 21.168 105.277 21.0933 104.904 20.944C104.53 20.7947 104.208 20.5753 103.938 20.286C103.667 19.9873 103.457 19.6233 103.308 19.194C103.168 18.7647 103.098 18.27 103.098 17.71C103.098 16.786 103.214 15.9367 103.448 15.162C103.69 14.378 104.022 13.6967 104.442 13.118C104.862 12.5393 105.356 12.0727 105.926 11.718C106.504 11.354 107.13 11.1253 107.802 11.032L108.04 11.928C107.517 12.0213 107.041 12.1987 106.612 12.46C106.182 12.7213 105.804 13.0433 105.478 13.426C105.16 13.8087 104.899 14.238 104.694 14.714C104.488 15.19 104.348 15.68 104.274 16.184C104.423 15.932 104.675 15.7033 105.03 15.498C105.384 15.2833 105.818 15.176 106.332 15.176C107.209 15.176 107.895 15.428 108.39 15.932C108.894 16.436 109.146 17.1407 109.146 18.046ZM107.984 18.158C107.984 17.4953 107.83 16.996 107.522 16.66C107.214 16.324 106.738 16.156 106.094 16.156C105.636 16.156 105.24 16.268 104.904 16.492C104.577 16.716 104.348 16.968 104.218 17.248C104.199 17.3787 104.19 17.486 104.19 17.57C104.19 17.654 104.19 17.7473 104.19 17.85C104.19 18.1393 104.227 18.424 104.302 18.704C104.386 18.984 104.512 19.236 104.68 19.46C104.848 19.6747 105.053 19.852 105.296 19.992C105.548 20.1227 105.842 20.188 106.178 20.188C106.448 20.188 106.691 20.1367 106.906 20.034C107.13 19.9313 107.321 19.7913 107.48 19.614C107.638 19.4367 107.76 19.222 107.844 18.97C107.937 18.718 107.984 18.4473 107.984 18.158Z" fill="#333333"/>
<defs>
<linearGradient id="paint0_linear_17_147" x1="85.256" y1="20.8462" x2="85.256" y2="10.4606" gradientUnits="userSpaceOnUse">
<stop stop-color="#D7D7D7"/>
<stop offset="1" stop-color="#D7D7D7"/>
</linearGradient>
<clipPath id="clip0_17_147">
<rect width="12" height="11.0769" fill="white" transform="translate(7 10.4615)"/>
</clipPath>
<clipPath id="clip1_17_147">
<rect width="12" height="11.0769" fill="white" transform="translate(23 10.4615)"/>
</clipPath>
<clipPath id="clip2_17_147">
<rect width="12" height="11.0769" fill="white" transform="translate(39 10.4615)"/>
</clipPath>
<clipPath id="clip3_17_147">
<rect width="12" height="11.0769" fill="white" transform="translate(55 10.4615)"/>
</clipPath>
<clipPath id="clip4_17_147">
<rect width="12" height="11.0769" fill="white" transform="translate(71 10.4615)"/>
</clipPath>
</defs>
</svg>
