<svg width="74" height="64" viewBox="0 0 74 64" fill="none" xmlns="http://www.w3.org/2000/svg">
<path d="M14.2901 45.464H13.6321V50H12.4701V40.2H13.6321V44.764L14.2621 44.568L17.5521 40.2H18.8961L15.6201 44.414L15.0321 44.876L15.7461 45.436L19.3301 50H17.8601L14.2901 45.464ZM19.595 46.5C19.595 45.3147 19.8563 44.4093 20.379 43.784C20.911 43.1493 21.6716 42.832 22.661 42.832C23.1836 42.832 23.6363 42.9207 24.019 43.098C24.411 43.266 24.733 43.5133 24.985 43.84C25.237 44.1573 25.4236 44.5447 25.545 45.002C25.6663 45.45 25.727 45.9493 25.727 46.5C25.727 47.6853 25.461 48.5953 24.929 49.23C24.4063 49.8553 23.6503 50.168 22.661 50.168C22.1383 50.168 21.681 50.084 21.289 49.916C20.9063 49.7387 20.589 49.4913 20.337 49.174C20.085 48.8473 19.8983 48.46 19.777 48.012C19.6556 47.5547 19.595 47.0507 19.595 46.5ZM20.757 46.5C20.757 46.8547 20.7896 47.1953 20.855 47.522C20.9296 47.8487 21.0416 48.1333 21.191 48.376C21.3403 48.6187 21.5363 48.8147 21.779 48.964C22.0216 49.1133 22.3156 49.188 22.661 49.188C23.9303 49.1973 24.565 48.3013 24.565 46.5C24.565 46.136 24.5276 45.7907 24.453 45.464C24.3876 45.1373 24.2803 44.8527 24.131 44.61C23.9816 44.3673 23.7856 44.176 23.543 44.036C23.3003 43.8867 23.0063 43.812 22.661 43.812C21.3916 43.8027 20.757 44.6987 20.757 46.5ZM27.4928 43H28.2628L28.4728 43.84H28.5288C28.7435 43.5133 29.0188 43.266 29.3548 43.098C29.7002 42.9207 30.0922 42.832 30.5308 42.832C31.4642 42.832 32.1595 43.1073 32.6168 43.658C33.0742 44.2087 33.3028 45.1093 33.3028 46.36C33.3028 46.948 33.2235 47.48 33.0648 47.956C32.9155 48.4227 32.7008 48.8193 32.4208 49.146C32.1408 49.4727 31.8002 49.7247 31.3988 49.902C31.0068 50.0793 30.5682 50.168 30.0828 50.168C29.7375 50.168 29.4622 50.1447 29.2568 50.098C29.0608 50.0607 28.8462 49.9907 28.6128 49.888V52.8H27.4928V43ZM30.3208 43.812C29.8448 43.812 29.4668 43.938 29.1868 44.19C28.9162 44.4327 28.7248 44.806 28.6128 45.31V48.782C28.7808 48.9127 28.9722 49.0153 29.1868 49.09C29.4015 49.1553 29.6862 49.188 30.0408 49.188C30.6848 49.188 31.1935 48.95 31.5668 48.474C31.9495 47.9887 32.1408 47.2793 32.1408 46.346C32.1408 45.9633 32.1082 45.618 32.0428 45.31C31.9775 44.9927 31.8702 44.7267 31.7208 44.512C31.5808 44.288 31.3942 44.1153 31.1608 43.994C30.9368 43.8727 30.6568 43.812 30.3208 43.812ZM35.739 46.878V45.968H36.719C36.887 45.968 37.0504 45.94 37.209 45.884C37.377 45.828 37.5264 45.7533 37.657 45.66C37.7877 45.5573 37.8904 45.4407 37.965 45.31C38.049 45.17 38.091 45.0253 38.091 44.876C38.091 44.512 37.965 44.2553 37.713 44.106C37.461 43.9567 37.083 43.882 36.579 43.882C36.215 43.882 35.879 43.938 35.571 44.05C35.2724 44.162 35.039 44.2693 34.871 44.372L34.549 43.504C34.829 43.3453 35.1557 43.2053 35.529 43.084C35.9117 42.9627 36.3644 42.902 36.887 42.902C38.4364 42.902 39.211 43.476 39.211 44.624C39.211 44.9507 39.1037 45.2727 38.889 45.59C38.6837 45.898 38.385 46.1173 37.993 46.248V46.304C38.5437 46.4067 38.9264 46.6027 39.141 46.892C39.365 47.1813 39.477 47.564 39.477 48.04C39.477 48.3387 39.4164 48.614 39.295 48.866C39.1737 49.118 38.9917 49.3373 38.749 49.524C38.5064 49.7107 38.1984 49.86 37.825 49.972C37.461 50.0747 37.0364 50.126 36.551 50.126C36.075 50.126 35.6784 50.084 35.361 50C35.053 49.916 34.773 49.8133 34.521 49.692L34.843 48.768C35.0577 48.8893 35.3144 48.9827 35.613 49.048C35.921 49.1133 36.2524 49.146 36.607 49.146C37.1764 49.146 37.6104 49.048 37.909 48.852C38.2077 48.656 38.357 48.3573 38.357 47.956C38.357 47.62 38.217 47.3587 37.937 47.172C37.657 46.976 37.195 46.878 36.551 46.878H35.739ZM45.6147 45.856L45.6567 44.988H45.6147L45.0407 45.884L41.8907 50H41.2467V43H42.3667V47.27L42.3247 48.096H42.3807L42.9267 47.228L46.0767 43H46.7347V50H45.6147V45.856ZM53.1733 46.906H50.0093V50H48.8893V43H50.0093V45.926H53.1733V43H54.2933V50H53.1733V46.906ZM56.3379 43.518C56.6925 43.3033 57.1032 43.1447 57.5699 43.042C58.0459 42.9393 58.5405 42.888 59.0539 42.888C59.5392 42.888 59.9265 42.9533 60.2159 43.084C60.5145 43.2147 60.7385 43.3873 60.8879 43.602C61.0465 43.8073 61.1492 44.036 61.1959 44.288C61.2519 44.54 61.2799 44.792 61.2799 45.044C61.2799 45.604 61.2659 46.15 61.2379 46.682C61.2099 47.214 61.1959 47.718 61.1959 48.194C61.1959 48.5393 61.2099 48.866 61.2379 49.174C61.2659 49.482 61.3172 49.7667 61.3919 50.028H60.5659L60.2719 49.048H60.2019C60.1179 49.1787 60.0105 49.3093 59.8799 49.44C59.7585 49.5613 59.6092 49.6733 59.4319 49.776C59.2545 49.8693 59.0492 49.9487 58.8159 50.014C58.5825 50.0793 58.3165 50.112 58.0179 50.112C57.7192 50.112 57.4392 50.0653 57.1779 49.972C56.9259 49.8787 56.7065 49.748 56.5199 49.58C56.3332 49.4027 56.1839 49.1927 56.0719 48.95C55.9692 48.7073 55.9179 48.432 55.9179 48.124C55.9179 47.7133 56.0019 47.3727 56.1699 47.102C56.3379 46.822 56.5712 46.6027 56.8699 46.444C57.1779 46.276 57.5419 46.1593 57.9619 46.094C58.3912 46.0193 58.8625 45.982 59.3759 45.982C59.5065 45.982 59.6325 45.982 59.7539 45.982C59.8845 45.982 60.0152 45.9913 60.1459 46.01C60.1739 45.73 60.1879 45.478 60.1879 45.254C60.1879 44.7407 60.0852 44.3813 59.8799 44.176C59.6745 43.9707 59.3012 43.868 58.7599 43.868C58.6012 43.868 58.4285 43.882 58.2419 43.91C58.0645 43.9287 57.8779 43.9613 57.6819 44.008C57.4952 44.0453 57.3132 44.0967 57.1359 44.162C56.9679 44.218 56.8185 44.2833 56.6879 44.358L56.3379 43.518ZM58.3259 49.132C58.5872 49.132 58.8205 49.0993 59.0259 49.034C59.2312 48.9593 59.4085 48.8707 59.5579 48.768C59.7072 48.656 59.8285 48.5347 59.9219 48.404C60.0245 48.2733 60.0992 48.1473 60.1459 48.026V46.864C60.0152 46.8547 59.8799 46.85 59.7399 46.85C59.6092 46.8407 59.4785 46.836 59.3479 46.836C59.0585 46.836 58.7739 46.8547 58.4939 46.892C58.2232 46.92 57.9805 46.9807 57.7659 47.074C57.5605 47.158 57.3925 47.2793 57.2619 47.438C57.1405 47.5873 57.0799 47.7787 57.0799 48.012C57.0799 48.3387 57.1965 48.6093 57.4299 48.824C57.6632 49.0293 57.9619 49.132 58.3259 49.132Z" fill="white"/>
<path fill-rule="evenodd" clip-rule="evenodd" d="M27.05 13C27.05 12.5858 27.3858 12.25 27.8 12.25H29.182C29.8449 12.25 30.4508 12.6245 30.7473 13.2174L31.2636 14.25H44.9384C45.8982 14.25 46.4999 15.2868 46.0237 16.1202L42.7391 21.8682C42.4275 22.4135 41.8477 22.75 41.2197 22.75H33.7157L32.3923 24.8675C32.2882 25.034 32.4079 25.25 32.6043 25.25H43.8C44.2142 25.25 44.55 25.5858 44.55 26C44.55 26.4142 44.2142 26.75 43.8 26.75H32.6043C31.2298 26.75 30.3918 25.2381 31.1203 24.0725L32.4716 21.9103L30.109 15.295L29.4056 13.8882C29.3633 13.8035 29.2767 13.75 29.182 13.75H27.8C27.3858 13.75 27.05 13.4142 27.05 13ZM31.8643 15.75L33.8286 21.25H41.2197C41.3094 21.25 41.3923 21.2019 41.4368 21.124L44.5076 15.75H31.8643ZM34.8 29.5C34.8 30.3284 34.1285 31 33.3 31C32.4716 31 31.8 30.3284 31.8 29.5C31.8 28.6716 32.4716 28 33.3 28C34.1285 28 34.8 28.6716 34.8 29.5ZM42.3 31C43.1284 31 43.8 30.3284 43.8 29.5C43.8 28.6716 43.1284 28 42.3 28C41.4716 28 40.8 28.6716 40.8 29.5C40.8 30.3284 41.4716 31 42.3 31Z" fill="white"/>
</svg>
