<svg width="20" height="20" viewBox="0 0 20 20" fill="none" xmlns="http://www.w3.org/2000/svg">
<path d="M5.52734 6.80664C5.65755 6.68945 5.80729 6.63086 5.97656 6.63086C6.14583 6.63086 6.29557 6.68945 6.42578 6.80664L11.7773 12.1777C11.8945 12.2949 11.9531 12.4382 11.9531 12.6074C11.9531 12.7767 11.8945 12.9264 11.7773 13.0566C11.6602 13.1738 11.5137 13.2324 11.3379 13.2324C11.1621 13.2324 11.0156 13.1738 10.8984 13.0566L5.97656 8.13477L1.05469 13.0566C0.9375 13.1738 0.791016 13.2324 0.615234 13.2324C0.439453 13.2324 0.292969 13.1738 0.175781 13.0566C0.0585938 12.9264 0 12.7767 0 12.6074C0 12.4382 0.0585938 12.2949 0.175781 12.1777L5.52734 6.80664Z" fill="#AFAFAF"/>
</svg>
