<svg width="47" height="64" viewBox="0 0 47 64" fill="none" xmlns="http://www.w3.org/2000/svg">
<path fill-rule="evenodd" clip-rule="evenodd" d="M23.405 13.7692C18.7903 13.7692 15.0493 17.5102 15.0493 22.125C15.0493 24.1529 15.7717 26.0121 16.9732 27.4592C18.4392 25.9599 20.409 24.7237 23.405 24.7237C26.3996 24.7237 28.3695 25.9501 29.8377 27.4581C31.0387 26.0112 31.7608 24.1524 31.7608 22.125C31.7608 17.5102 28.0198 13.7692 23.405 13.7692ZM28.7657 28.5347C27.5062 27.2338 25.8995 26.2429 23.405 26.2429C20.9134 26.2429 19.306 27.24 18.0453 28.5356C19.4961 29.7498 21.3652 30.4808 23.405 30.4808C25.4453 30.4808 27.3148 29.7495 28.7657 28.5347ZM13.53 22.125C13.53 16.6712 17.9512 12.25 23.405 12.25C28.8588 12.25 33.28 16.6712 33.28 22.125C33.28 27.5788 28.8588 32 23.405 32C17.9512 32 13.53 27.5788 13.53 22.125ZM23.405 17.6072C21.9698 17.6072 20.8063 18.7707 20.8063 20.2059C20.8063 21.6411 21.9698 22.8046 23.405 22.8046C24.8402 22.8046 26.0037 21.6411 26.0037 20.2059C26.0037 18.7707 24.8402 17.6072 23.405 17.6072ZM19.2871 20.2059C19.2871 17.9317 21.1308 16.088 23.405 16.088C25.6793 16.088 27.5229 17.9317 27.5229 20.2059C27.5229 22.4802 25.6793 24.3238 23.405 24.3238C21.1308 24.3238 19.2871 22.4802 19.2871 20.2059Z" fill="white"/>
<path d="M12.118 42.44C12.118 42.6733 12.0807 42.9113 12.006 43.154C11.9314 43.3967 11.8194 43.6253 11.67 43.84C11.5207 44.0453 11.3294 44.2273 11.096 44.386C10.8627 44.5447 10.5874 44.666 10.27 44.75V44.806C10.55 44.8527 10.816 44.932 11.068 45.044C11.3294 45.156 11.558 45.31 11.754 45.506C11.95 45.702 12.1087 45.94 12.23 46.22C12.3514 46.5 12.412 46.8313 12.412 47.214C12.412 47.718 12.3047 48.1567 12.09 48.53C11.8847 48.894 11.6094 49.1927 11.264 49.426C10.928 49.6593 10.5407 49.832 10.102 49.944C9.66335 50.056 9.21535 50.112 8.75802 50.112C8.59935 50.112 8.41269 50.112 8.19802 50.112C7.98335 50.112 7.75935 50.1027 7.52602 50.084C7.29269 50.0747 7.05935 50.056 6.82602 50.028C6.59269 50.0093 6.38735 49.9767 6.21002 49.93V40.284C6.55535 40.228 6.95669 40.1813 7.41402 40.144C7.87135 40.1067 8.37069 40.088 8.91202 40.088C9.27602 40.088 9.64469 40.1207 10.018 40.186C10.4007 40.242 10.746 40.3587 11.054 40.536C11.362 40.704 11.614 40.942 11.81 41.25C12.0154 41.558 12.118 41.9547 12.118 42.44ZM8.87002 49.104C9.16869 49.104 9.45802 49.0713 9.73802 49.006C10.018 48.9313 10.2654 48.8193 10.48 48.67C10.6947 48.5113 10.8627 48.32 10.984 48.096C11.1147 47.872 11.18 47.606 11.18 47.298C11.18 46.9153 11.1007 46.6073 10.942 46.374C10.7927 46.1407 10.592 45.9587 10.34 45.828C10.0974 45.6973 9.82202 45.6087 9.51402 45.562C9.20602 45.5153 8.89802 45.492 8.59002 45.492H7.37202V49.006C7.43735 49.0247 7.53069 49.0387 7.65202 49.048C7.77335 49.0573 7.90402 49.0667 8.04402 49.076C8.18402 49.0853 8.32869 49.0947 8.47802 49.104C8.62735 49.104 8.75802 49.104 8.87002 49.104ZM8.10002 44.512C8.25869 44.512 8.45002 44.5073 8.67402 44.498C8.89802 44.4887 9.08469 44.4747 9.23402 44.456C9.45802 44.3813 9.66802 44.2927 9.86402 44.19C10.06 44.078 10.2327 43.952 10.382 43.812C10.5407 43.6627 10.662 43.4947 10.746 43.308C10.8394 43.112 10.886 42.902 10.886 42.678C10.886 42.37 10.8254 42.118 10.704 41.922C10.592 41.7167 10.438 41.5533 10.242 41.432C10.046 41.3107 9.82202 41.2267 9.57002 41.18C9.31802 41.124 9.06135 41.096 8.80002 41.096C8.49202 41.096 8.20735 41.1053 7.94602 41.124C7.69402 41.1333 7.50269 41.152 7.37202 41.18V44.512H8.10002ZM13.8818 46.5C13.8818 45.3147 14.1431 44.4093 14.6658 43.784C15.1978 43.1493 15.9585 42.832 16.9478 42.832C17.4705 42.832 17.9231 42.9207 18.3058 43.098C18.6978 43.266 19.0198 43.5133 19.2718 43.84C19.5238 44.1573 19.7105 44.5447 19.8318 45.002C19.9531 45.45 20.0138 45.9493 20.0138 46.5C20.0138 47.6853 19.7478 48.5953 19.2158 49.23C18.6931 49.8553 17.9371 50.168 16.9478 50.168C16.4251 50.168 15.9678 50.084 15.5758 49.916C15.1931 49.7387 14.8758 49.4913 14.6238 49.174C14.3718 48.8473 14.1851 48.46 14.0638 48.012C13.9425 47.5547 13.8818 47.0507 13.8818 46.5ZM15.0438 46.5C15.0438 46.8547 15.0765 47.1953 15.1418 47.522C15.2165 47.8487 15.3285 48.1333 15.4778 48.376C15.6271 48.6187 15.8231 48.8147 16.0658 48.964C16.3085 49.1133 16.6025 49.188 16.9478 49.188C18.2171 49.1973 18.8518 48.3013 18.8518 46.5C18.8518 46.136 18.8145 45.7907 18.7398 45.464C18.6745 45.1373 18.5671 44.8527 18.4178 44.61C18.2685 44.3673 18.0725 44.176 17.8298 44.036C17.5871 43.8867 17.2931 43.812 16.9478 43.812C15.6785 43.8027 15.0438 44.6987 15.0438 46.5ZM26.1477 45.856L26.1897 44.988H26.1477L25.5737 45.884L22.4237 50H21.7797V43H22.8997V47.27L22.8577 48.096H22.9137L23.4597 47.228L26.6097 43H27.2677V50H26.1477V45.856ZM23.3897 40.172C23.483 40.6013 23.6417 40.9 23.8657 41.068C24.099 41.236 24.365 41.32 24.6637 41.32C24.9623 41.32 25.2283 41.2313 25.4617 41.054C25.695 40.8767 25.8537 40.5873 25.9377 40.186L26.7777 40.452C26.6937 40.9933 26.451 41.4087 26.0497 41.698C25.6577 41.9873 25.1863 42.132 24.6357 42.132C24.3837 42.132 24.1317 42.0993 23.8797 42.034C23.637 41.9687 23.4177 41.8707 23.2217 41.74C23.0257 41.6093 22.8577 41.4413 22.7177 41.236C22.5777 41.0307 22.4843 40.788 22.4377 40.508L23.3897 40.172ZM33.8882 43.98H31.6902V50H30.5702V43.98H28.3722V43H33.8882V43.98ZM39.3684 45.856L39.4104 44.988H39.3684L38.7944 45.884L35.6444 50H35.0004V43H36.1204V47.27L36.0784 48.096H36.1344L36.6804 47.228L39.8304 43H40.4884V50H39.3684V45.856Z" fill="white"/>
</svg>
