<svg width="20" height="19" viewBox="0 0 20 19" fill="none" xmlns="http://www.w3.org/2000/svg">
<path fill-rule="evenodd" clip-rule="evenodd" d="M8.34394 1.76346C6.58405 1.76346 4.89624 2.40957 3.65182 3.55964C2.40739 4.70972 1.70827 6.26956 1.70827 7.89601C1.70827 9.52246 2.40739 11.0823 3.65182 12.2324C4.89624 13.3825 6.58405 14.0286 8.34394 14.0286C10.1038 14.0286 11.7916 13.3825 13.0361 12.2324C14.2805 11.0823 14.9796 9.52246 14.9796 7.89601C14.9796 6.26956 14.2805 4.70972 13.0361 3.55964C11.7916 2.40957 10.1038 1.76346 8.34394 1.76346ZM0.0706482 7.89601C0.070617 6.67069 0.389232 5.46332 0.999652 4.37559C1.61007 3.28786 2.49442 2.35165 3.57819 1.64582C4.66196 0.939988 5.91341 0.485212 7.22711 0.319804C8.54082 0.154397 9.8783 0.283202 11.1269 0.695369C12.3755 1.10754 13.4986 1.79099 14.4016 2.68816C15.3046 3.58533 15.9611 4.66993 16.3158 5.8506C16.6704 7.03127 16.7128 8.27341 16.4394 9.4724C16.1661 10.6714 15.5849 11.7921 14.7449 12.7401L19.2877 16.9395C19.3681 17.0087 19.4326 17.0923 19.4774 17.1851C19.5221 17.2779 19.5462 17.3781 19.5481 17.4797C19.5501 17.5813 19.5299 17.6823 19.4887 17.7765C19.4475 17.8707 19.3862 17.9563 19.3084 18.0282C19.2307 18.1 19.1381 18.1567 19.0361 18.1947C18.9342 18.2328 18.8249 18.2515 18.715 18.2497C18.6051 18.2479 18.4966 18.2257 18.3962 18.1843C18.2958 18.1429 18.2054 18.0833 18.1304 18.009L13.5865 13.8116C12.3747 14.729 10.9059 15.3096 9.35106 15.4858C7.7962 15.6621 6.21916 15.4267 4.80335 14.8072C3.38754 14.1876 2.19115 13.2093 1.35334 11.986C0.515524 10.7627 0.0707158 9.34475 0.0706482 7.89702V7.89601Z" fill="#AFAFAF"/>
</svg>
