<svg width="57" height="42" viewBox="0 0 57 42" fill="none" xmlns="http://www.w3.org/2000/svg">
<path fill-rule="evenodd" clip-rule="evenodd" d="M28.405 1.76923C23.7903 1.76923 20.0493 5.51024 20.0493 10.125C20.0493 12.1529 20.7717 14.0121 21.9732 15.4592C23.4392 13.9599 25.409 12.7237 28.405 12.7237C31.3996 12.7237 33.3695 13.9501 34.8377 15.4581C36.0387 14.0112 36.7608 12.1524 36.7608 10.125C36.7608 5.51024 33.0198 1.76923 28.405 1.76923ZM33.7657 16.5347C32.5062 15.2338 30.8995 14.2429 28.405 14.2429C25.9134 14.2429 24.306 15.24 23.0453 16.5356C24.4961 17.7498 26.3652 18.4808 28.405 18.4808C30.4453 18.4808 32.3148 17.7495 33.7657 16.5347ZM18.53 10.125C18.53 4.67119 22.9512 0.25 28.405 0.25C33.8588 0.25 38.28 4.67119 38.28 10.125C38.28 15.5788 33.8588 20 28.405 20C22.9512 20 18.53 15.5788 18.53 10.125ZM28.405 5.60724C26.9698 5.60724 25.8063 6.77071 25.8063 8.20593C25.8063 9.64114 26.9698 10.8046 28.405 10.8046C29.8402 10.8046 31.0037 9.64114 31.0037 8.20593C31.0037 6.77071 29.8402 5.60724 28.405 5.60724ZM24.2871 8.20593C24.2871 5.93166 26.1308 4.08801 28.405 4.08801C30.6793 4.08801 32.5229 5.93166 32.5229 8.20593C32.5229 10.4802 30.6793 12.3238 28.405 12.3238C26.1308 12.3238 24.2871 10.4802 24.2871 8.20593Z" fill="white"/>
<path d="M7.39304 29.236H2.87104V38H1.70904V28.2H8.55504V38H7.39304V29.236ZM10.8256 31H11.5956L11.8056 31.84H11.8616C12.0762 31.5133 12.3516 31.266 12.6876 31.098C13.0329 30.9207 13.4249 30.832 13.8636 30.832C14.7969 30.832 15.4922 31.1073 15.9496 31.658C16.4069 32.2087 16.6356 33.1093 16.6356 34.36C16.6356 34.948 16.5562 35.48 16.3976 35.956C16.2482 36.4227 16.0336 36.8193 15.7536 37.146C15.4736 37.4727 15.1329 37.7247 14.7316 37.902C14.3396 38.0793 13.9009 38.168 13.4156 38.168C13.0702 38.168 12.7949 38.1447 12.5896 38.098C12.3936 38.0607 12.1789 37.9907 11.9456 37.888V40.8H10.8256V31ZM13.6536 31.812C13.1776 31.812 12.7996 31.938 12.5196 32.19C12.2489 32.4327 12.0576 32.806 11.9456 33.31V36.782C12.1136 36.9127 12.3049 37.0153 12.5196 37.09C12.7342 37.1553 13.0189 37.188 13.3736 37.188C14.0176 37.188 14.5262 36.95 14.8996 36.474C15.2822 35.9887 15.4736 35.2793 15.4736 34.346C15.4736 33.9633 15.4409 33.618 15.3756 33.31C15.3102 32.9927 15.2029 32.7267 15.0536 32.512C14.9136 32.288 14.7269 32.1153 14.4936 31.994C14.2696 31.8727 13.9896 31.812 13.6536 31.812ZM18.0078 34.5C18.0078 33.3147 18.2691 32.4093 18.7918 31.784C19.3238 31.1493 20.0844 30.832 21.0738 30.832C21.5964 30.832 22.0491 30.9207 22.4318 31.098C22.8238 31.266 23.1458 31.5133 23.3978 31.84C23.6498 32.1573 23.8364 32.5447 23.9578 33.002C24.0791 33.45 24.1398 33.9493 24.1398 34.5C24.1398 35.6853 23.8738 36.5953 23.3418 37.23C22.8191 37.8553 22.0631 38.168 21.0738 38.168C20.5511 38.168 20.0938 38.084 19.7018 37.916C19.3191 37.7387 19.0018 37.4913 18.7498 37.174C18.4978 36.8473 18.3111 36.46 18.1898 36.012C18.0684 35.5547 18.0078 35.0507 18.0078 34.5ZM19.1698 34.5C19.1698 34.8547 19.2024 35.1953 19.2678 35.522C19.3424 35.8487 19.4544 36.1333 19.6038 36.376C19.7531 36.6187 19.9491 36.8147 20.1918 36.964C20.4344 37.1133 20.7284 37.188 21.0738 37.188C22.3431 37.1973 22.9778 36.3013 22.9778 34.5C22.9778 34.136 22.9404 33.7907 22.8658 33.464C22.8004 33.1373 22.6931 32.8527 22.5438 32.61C22.3944 32.3673 22.1984 32.176 21.9558 32.036C21.7131 31.8867 21.4191 31.812 21.0738 31.812C19.8044 31.8027 19.1698 32.6987 19.1698 34.5ZM29.0556 38.056C28.897 38.112 28.729 38.1447 28.5516 38.154C28.3836 38.1633 28.2296 38.168 28.0896 38.168C27.2403 38.168 26.587 37.8693 26.1296 37.272C25.6723 36.6747 25.4436 35.7507 25.4436 34.5C25.4436 33.3053 25.6956 32.4047 26.1996 31.798C26.7036 31.1913 27.4316 30.888 28.3836 30.888C28.645 30.888 28.869 30.9067 29.0556 30.944V28.2H30.1196V30.958C30.2876 30.93 30.437 30.9113 30.5676 30.902C30.6983 30.8927 30.8243 30.888 30.9456 30.888C31.8696 30.888 32.565 31.1587 33.0316 31.7C33.4983 32.232 33.7316 33.1187 33.7316 34.36C33.7316 34.948 33.6663 35.48 33.5356 35.956C33.4143 36.4227 33.2323 36.8193 32.9896 37.146C32.747 37.4727 32.4483 37.7247 32.0936 37.902C31.7483 38.0793 31.347 38.168 30.8896 38.168C30.8056 38.168 30.6796 38.1587 30.5116 38.14C30.353 38.1307 30.2223 38.1073 30.1196 38.07V40.8H29.0556V38.056ZM30.7356 31.812C30.6236 31.812 30.521 31.8167 30.4276 31.826C30.3436 31.826 30.2363 31.8447 30.1056 31.882V37.202C30.199 37.2207 30.3016 37.2347 30.4136 37.244C30.535 37.244 30.6656 37.244 30.8056 37.244C31.403 37.244 31.851 36.9967 32.1496 36.502C32.4576 36.0073 32.6116 35.2933 32.6116 34.36C32.6116 33.5667 32.4716 32.946 32.1916 32.498C31.921 32.0407 31.4356 31.812 30.7356 31.812ZM28.3696 37.244C28.4816 37.244 28.5936 37.2393 28.7056 37.23C28.8176 37.2207 28.939 37.202 29.0696 37.174V31.868C28.9576 31.8493 28.8503 31.8353 28.7476 31.826C28.6543 31.8167 28.5376 31.812 28.3976 31.812C27.819 31.812 27.3663 32.0313 27.0396 32.47C26.7223 32.8993 26.5636 33.576 26.5636 34.5C26.5636 34.892 26.5963 35.256 26.6616 35.592C26.7363 35.928 26.8483 36.222 26.9976 36.474C27.147 36.7167 27.3336 36.908 27.5576 37.048C27.791 37.1787 28.0616 37.244 28.3696 37.244ZM39.7893 33.856L39.8313 32.988H39.7893L39.2153 33.884L36.0653 38H35.4213V31H36.5413V35.27L36.4993 36.096H36.5553L37.1013 35.228L40.2513 31H40.9093V38H39.7893V33.856ZM46.8298 31.98H44.7998C44.7718 32.372 44.7438 32.7967 44.7158 33.254C44.6878 33.702 44.6458 34.1547 44.5898 34.612C44.5338 35.06 44.4592 35.494 44.3658 35.914C44.2725 36.3247 44.1512 36.6887 44.0018 37.006C43.8618 37.3233 43.6845 37.58 43.4698 37.776C43.2645 37.9627 43.0172 38.056 42.7278 38.056C42.5505 38.056 42.3965 38.0467 42.2658 38.028C42.1352 38.0093 42.0185 37.9767 41.9158 37.93L42.0838 36.992C42.1958 37.0293 42.3172 37.048 42.4478 37.048C42.6345 37.048 42.8025 36.9687 42.9518 36.81C43.1012 36.6513 43.2318 36.3527 43.3438 35.914C43.4558 35.466 43.5492 34.85 43.6238 34.066C43.6985 33.282 43.7498 32.26 43.7778 31H47.9498V38H46.8298V31.98ZM51.2249 37.02C51.5702 37.076 51.9015 37.104 52.2189 37.104C52.8069 37.104 53.2409 36.992 53.5209 36.768C53.8009 36.5347 53.9409 36.208 53.9409 35.788C53.9409 35.4147 53.8055 35.1067 53.5349 34.864C53.2642 34.6213 52.8395 34.5 52.2609 34.5C52.1022 34.5 51.9295 34.5047 51.7429 34.514C51.5562 34.5233 51.3835 34.5513 51.2249 34.598V37.02ZM51.2249 33.674C51.4489 33.6367 51.6635 33.6133 51.8689 33.604C52.0742 33.5853 52.2702 33.576 52.4569 33.576C52.9422 33.576 53.3529 33.632 53.6889 33.744C54.0249 33.8467 54.2955 33.9913 54.5009 34.178C54.7155 34.3647 54.8695 34.5887 54.9629 34.85C55.0562 35.102 55.1029 35.3727 55.1029 35.662C55.1029 36.5113 54.8462 37.1273 54.3329 37.51C53.8289 37.8927 53.0402 38.084 51.9669 38.084C51.3695 38.084 50.7489 38.056 50.1049 38V31H51.2249V33.674Z" fill="white"/>
</svg>
